<?xml version="1.0" standalone="no"?>
<!DOCTYPE svg PUBLIC "-//W3C//DTD SVG 20010904//EN"
 "http://www.w3.org/TR/2001/REC-SVG-20010904/DTD/svg10.dtd">
<svg version="1.0" xmlns="http://www.w3.org/2000/svg"
 width="64.000000pt" height="64.000000pt" viewBox="0 0 64.000000 64.000000"
 preserveAspectRatio="xMidYMid meet">

<g transform="translate(0.000000,64.000000) scale(0.100000,-0.100000)"
fill="#000000" stroke="none">
<path d="M245 631 c-92 -24 -173 -90 -215 -176 -19 -41 -24 -66 -24 -135 -1
-78 2 -90 33 -148 38 -70 70 -100 145 -140 43 -22 64 -26 136 -26 72 0 93 4
136 26 75 40 107 70 145 140 31 58 34 70 33 148 0 72 -4 93 -26 136 -39 75
-70 107 -137 143 -65 34 -164 49 -226 32z m165 -47 c39 -12 66 -29 104 -67
206 -207 3 -544 -279 -463 -79 23 -156 100 -179 176 -34 113 -11 206 68 286
80 79 173 102 286 68z"/>
<path d="M307 474 c-4 -4 -7 -36 -7 -70 l0 -63 -67 -3 c-53 -2 -68 -6 -68 -18
0 -12 15 -16 67 -18 l67 -3 3 -67 c2 -52 6 -67 18 -67 12 0 16 15 18 67 l3 67
67 3 c52 2 67 6 67 18 0 12 -15 16 -67 18 l-67 3 -3 66 c-3 61 -14 84 -31 67z"/>
</g>
</svg>
