<?xml version="1.0" standalone="no"?>
<!DOCTYPE svg PUBLIC "-//W3C//DTD SVG 20010904//EN"
 "http://www.w3.org/TR/2001/REC-SVG-20010904/DTD/svg10.dtd">
<svg version="1.0" xmlns="http://www.w3.org/2000/svg"
 width="64.000000pt" height="64.000000pt" viewBox="0 0 64.000000 64.000000"
 preserveAspectRatio="xMidYMid meet">

<g transform="translate(0.000000,64.000000) scale(0.100000,-0.100000)"
fill="#000000" stroke="none">
<path d="M160 627 c-28 -14 -50 -51 -50 -84 l0 -23 210 0 c205 0 210 0 210 20
0 33 -26 75 -55 88 -36 17 -282 16 -315 -1z"/>
<path d="M51 466 c-13 -7 -30 -24 -37 -37 -17 -31 -18 -198 -2 -234 12 -27 54
-55 83 -55 22 0 21 88 -2 105 -40 29 -4 35 227 35 231 0 267 -6 227 -35 -23
-17 -24 -105 -2 -105 29 0 71 28 83 55 16 34 16 196 0 230 -23 51 -46 55 -310
55 -182 -1 -249 -4 -267 -14z m124 -86 c0 -18 -72 -27 -87 -12 -19 19 3 33 45
30 29 -2 42 -8 42 -18z"/>
<path d="M150 132 c0 -71 4 -112 12 -120 17 -17 299 -17 316 0 8 8 12 49 12
120 l0 108 -170 0 -170 0 0 -108z m235 48 c0 -11 -15 -16 -59 -18 -59 -3 -84
7 -71 28 11 18 130 9 130 -10z m0 -80 c0 -11 -15 -16 -59 -18 -59 -3 -84 7
-71 28 11 18 130 9 130 -10z"/>
</g>
</svg>
