<?xml version="1.0" standalone="no"?>
<!DOCTYPE svg PUBLIC "-//W3C//DTD SVG 20010904//EN"
 "http://www.w3.org/TR/2001/REC-SVG-20010904/DTD/svg10.dtd">
<svg version="1.0" xmlns="http://www.w3.org/2000/svg"
 width="220.000000pt" height="31.000000pt" viewBox="0 0 220.000000 31.000000"
 preserveAspectRatio="xMidYMid meet">

<g transform="translate(0.000000,31.000000) scale(0.100000,-0.100000)"
fill="#000000" stroke="none">
<path d="M0 164 l0 -135 52 3 52 3 35 82 c20 46 39 83 44 83 4 0 7 -38 7 -85
l0 -85 49 0 48 0 54 126 c30 70 56 131 57 135 2 5 -12 9 -31 9 -35 0 -35 0
-74 -97 l-38 -98 -9 98 -9 97 -36 0 c-36 0 -36 -1 -76 -91 -22 -50 -43 -93
-47 -95 -5 -3 -8 38 -8 90 l0 96 -35 0 -35 0 0 -136z"/>
<path d="M949 239 c-10 -53 -14 -60 -25 -45 -19 26 -82 18 -106 -15 -24 -32
-36 -133 -18 -144 21 -13 71 -7 91 11 17 16 19 16 19 1 0 -12 9 -17 28 -17 28
0 28 1 50 113 12 61 25 122 28 135 6 19 3 22 -24 22 -30 0 -31 -2 -43 -61z
m-26 -107 c-1 -41 -18 -62 -49 -62 -27 0 -31 18 -13 69 9 27 16 32 38 29 23
-3 26 -7 24 -36z"/>
<path d="M1165 288 c-2 -7 -13 -58 -25 -113 -11 -55 -22 -110 -25 -122 -5 -20
-1 -23 29 -23 l34 0 11 68 c21 124 23 130 31 106 5 -11 11 -55 15 -97 l7 -77
33 0 c32 0 36 5 85 96 28 53 54 94 56 91 3 -3 -4 -41 -15 -85 -27 -102 -27
-102 9 -102 23 0 31 5 35 22 3 13 16 74 29 136 l24 112 -57 0 -57 0 -44 -87
-44 -88 -7 45 c-4 25 -8 64 -8 88 l-1 42 -55 0 c-36 0 -57 -5 -60 -12z"/>
<path d="M1530 279 c0 -16 5 -20 27 -17 17 2 29 10 31 21 3 13 -3 17 -27 17
-25 0 -31 -4 -31 -21z"/>
<path d="M2090 212 c-8 -2 -21 -11 -27 -20 -12 -14 -13 -14 -13 1 0 12 -8 17
-29 17 -28 0 -29 -2 -45 -82 -20 -105 -21 -100 10 -96 24 3 29 10 43 68 11 46
21 66 34 68 10 2 17 -3 17 -13 0 -12 7 -15 28 -13 21 2 28 9 30 30 3 29 -21
49 -48 40z"/>
<path d="M403 193 c-40 -35 -56 -129 -27 -154 23 -19 111 -15 135 6 24 23 42
80 37 125 l-3 35 -61 3 c-47 2 -65 -1 -81 -15z m87 -47 c0 -47 -18 -76 -46
-76 -25 0 -26 2 -21 36 7 43 23 64 48 64 13 0 19 -7 19 -24z"/>
<path d="M617 192 c-34 -37 -51 -142 -26 -158 6 -4 36 -6 67 -6 69 1 88 18
104 94 16 75 5 88 -72 88 -41 0 -61 -5 -73 -18z m88 -32 c3 -5 1 -28 -5 -50
-9 -33 -15 -40 -35 -40 -20 0 -25 5 -25 24 0 41 18 76 39 76 11 0 23 -4 26
-10z"/>
<path d="M1501 148 c-6 -35 -14 -75 -18 -90 -5 -26 -3 -28 24 -28 28 0 30 3
42 63 6 34 14 74 18 90 5 25 3 27 -24 27 -28 0 -30 -3 -42 -62z"/>
<path d="M1606 194 c-9 -24 -9 -24 29 -24 19 0 35 -2 35 -5 0 -2 -22 -25 -50
-51 -27 -26 -50 -55 -50 -65 0 -17 8 -19 74 -19 65 0 74 2 79 20 4 18 0 20
-36 20 l-42 1 51 47 c28 26 53 57 57 70 5 21 3 22 -68 22 -57 0 -74 -3 -79
-16z"/>
<path d="M1807 198 c-40 -31 -61 -134 -31 -159 23 -19 111 -15 134 6 33 30 24
37 -35 30 -51 -7 -55 -6 -55 14 0 19 6 21 59 21 44 0 60 4 65 16 10 25 7 59
-6 72 -16 16 -110 15 -131 0z m83 -43 c0 -10 -10 -15 -30 -15 -29 0 -38 9 -23
23 13 13 53 7 53 -8z"/>
<path d="M1017 143 c-4 -3 -7 -15 -7 -25 0 -15 8 -18 44 -18 39 0 44 3 48 25
5 23 3 25 -37 25 -23 0 -45 -3 -48 -7z"/>
</g>
</svg>
