<?xml version="1.0" standalone="no"?>
<!DOCTYPE svg PUBLIC "-//W3C//DTD SVG 20010904//EN"
 "http://www.w3.org/TR/2001/REC-SVG-20010904/DTD/svg10.dtd">
<svg version="1.0" xmlns="http://www.w3.org/2000/svg"
 width="64.000000pt" height="64.000000pt" viewBox="0 0 64.000000 64.000000"
 preserveAspectRatio="xMidYMid meet">

<g transform="translate(0.000000,64.000000) scale(0.100000,-0.100000)"
fill="#000000" stroke="none">
<path d="M245 631 c-92 -24 -173 -90 -215 -176 -19 -41 -24 -66 -24 -135 -1
-78 2 -90 33 -148 38 -70 70 -100 145 -140 43 -22 64 -26 136 -26 72 0 93 4
136 26 75 40 107 70 145 140 31 58 34 70 33 148 0 72 -4 93 -26 136 -39 75
-70 107 -137 143 -65 34 -164 49 -226 32z m93 -153 c7 -7 12 -38 12 -70 l0
-58 59 0 c40 0 63 -5 71 -15 23 -27 -5 -45 -71 -45 l-59 0 0 -59 c0 -40 -5
-63 -15 -71 -27 -23 -45 5 -45 71 l0 59 -59 0 c-66 0 -94 18 -71 45 8 10 31
15 71 15 l59 0 0 58 c0 51 11 82 30 82 3 0 11 -5 18 -12z"/>
</g>
</svg>
