<?xml version="1.0" standalone="no"?>
<!DOCTYPE svg PUBLIC "-//W3C//DTD SVG 20010904//EN"
 "http://www.w3.org/TR/2001/REC-SVG-20010904/DTD/svg10.dtd">
<svg version="1.0" xmlns="http://www.w3.org/2000/svg"
 width="64.000000pt" height="64.000000pt" viewBox="0 0 64.000000 64.000000"
 preserveAspectRatio="xMidYMid meet">

<g transform="translate(0.000000,64.000000) scale(0.100000,-0.100000)"
fill="#000000" stroke="none">
<path d="M163 630 c-29 -12 -53 -60 -53 -108 0 -35 -3 -40 -28 -45 -16 -3 -39
-15 -53 -25 -23 -19 -24 -25 -24 -142 0 -117 1 -123 24 -142 14 -10 37 -22 53
-25 26 -5 28 -9 28 -54 0 -36 5 -54 20 -69 18 -18 33 -20 190 -20 157 0 172 2
190 20 15 15 20 33 20 69 0 45 2 49 28 54 16 3 39 15 53 25 23 19 24 25 24
142 0 117 -1 123 -24 142 -14 10 -37 22 -53 25 -25 5 -28 10 -28 45 0 50 -24
96 -56 108 -31 12 -281 12 -311 0z m311 -46 c10 -9 16 -33 16 -60 l0 -44 -170
0 -170 0 0 44 c0 72 10 76 170 76 113 0 142 -3 154 -16z m110 -160 c12 -12 16
-38 16 -114 0 -105 -10 -130 -51 -130 -24 0 -26 47 -2 65 40 29 4 35 -227 35
-231 0 -267 -6 -227 -35 24 -18 22 -65 -2 -65 -41 0 -51 25 -51 130 0 76 4
102 16 114 23 24 505 24 528 0z m-94 -284 l0 -100 -170 0 -170 0 0 100 0 100
170 0 170 0 0 -100z"/>
<path d="M85 390 c-12 -19 10 -32 51 -28 27 2 39 8 39 18 0 19 -79 27 -90 10z"/>
<path d="M255 190 c-13 -21 12 -31 71 -28 44 2 59 7 59 18 0 19 -119 28 -130
10z"/>
<path d="M255 110 c-13 -21 12 -31 71 -28 44 2 59 7 59 18 0 19 -119 28 -130
10z"/>
</g>
</svg>
